# xmcd
#
# Track frame offsets:
# 150
# 20479
# 37747
# 49651
# 65224
# 77928
# 92876
# 97842
# 108280
# 119295
# 132474
# 143028
# 151986
# 160964
# 173454
# 184821
# 199548
# 211001
#
# Disc length: 3116 seconds
#
#
# Revision: 2
# Processed by: cddbd v1.5.2PL0 Copyright (c) Steve Scherf et al.
# Submitted via: FreeRIP 2.951 
#
DISCID=e90c2a12
DTITLE=Memphis Slim - Worried Life Blues, CD 4
DYEAR=1900
DGENRE=Jazz
TTITLE0=Bye Bye will be on my way
TTITLE1=Letter home
TTITLE2=Memphis slim USA
TTITLE3=Born with the Blues
TTITLE4=Rocking the House
TTITLE5=I wanna Dance
TTITLE6=Coco Boogie
TTITLE7=Fat Cat
TTITLE8=Chunkin
TTITLE9=Lonely Nights
TTITLE10=Walk on
TTITLE11=Pretending I'm Happy
TTITLE12=The natural Fact
TTITLE13=Blues Universal
TTITLE14=She's gone for Twelve Hours
TTITLE15=My walking Shoes
TTITLE16=When I'm gone
TTITLE17=T.W.A.
EXTD=
EXTT0=
EXTT1=
EXTT2=
EXTT3=
EXTT4=
EXTT5=
EXTT6=
EXTT7=
EXTT8=
EXTT9=
EXTT10=
EXTT11=
EXTT12=
EXTT13=
EXTT14=
EXTT15=
EXTT16=
EXTT17=
PLAYORDER=
